<svg width="32" height="32" viewBox="0 0 32 32" fill="none" xmlns="http://www.w3.org/2000/svg">
  <defs>
    <linearGradient id="containerGradient" x1="0%" y1="0%" x2="100%" y2="100%">
      <stop offset="0%" style="stop-color:#3b82f6;stop-opacity:1" />
      <stop offset="100%" style="stop-color:#1d4ed8;stop-opacity:1" />
    </linearGradient>
  </defs>
  
  <!-- Container Box -->
  <rect x="4" y="8" width="24" height="16" rx="2" fill="url(#containerGradient)" stroke="#1e40af" stroke-width="1"/>
  
  <!-- Container lines -->
  <line x1="8" y1="14" x2="24" y2="14" stroke="#1e40af" stroke-width="1" opacity="0.5"/>
  <line x1="8" y1="18" x2="24" y2="18" stroke="#1e40af" stroke-width="1" opacity="0.5"/>
  
  <!-- Lock icon -->
  <path d="M16 12v2h-2a2 2 0 0 0-2 2v4a2 2 0 0 0 2 2h4a2 2 0 0 0 2-2v-4a2 2 0 0 0-2-2h-2v-2a2 2 0 0 0-4 0z" fill="#ffffff"/>
  <circle cx="16" cy="18" r="1" fill="#3b82f6"/>
</svg>